<svg width="1200" height="760" viewBox="0 0 1200 760" fill="none" xmlns="http://www.w3.org/2000/svg">
  <rect width="1200" height="760" rx="28" fill="#07111F"/>
  <rect x="54" y="54" width="1092" height="652" rx="24" fill="#0D1B2E" stroke="#274060" stroke-width="2"/>
  <rect x="92" y="104" width="260" height="40" rx="12" fill="#1E4D8F"/>
  <rect x="92" y="172" width="180" height="20" rx="10" fill="#3B5C90"/>
  <rect x="92" y="212" width="220" height="18" rx="9" fill="#243B5D"/>
  <rect x="92" y="272" width="320" height="120" rx="20" fill="#0F2743" stroke="#2B4A6B"/>
  <rect x="122" y="302" width="160" height="18" rx="9" fill="#5F8FD2"/>
  <rect x="122" y="334" width="200" height="14" rx="7" fill="#4872A8"/>
  <rect x="448" y="104" width="660" height="430" rx="24" fill="#111F34" stroke="#2E4A6F"/>
  <rect x="490" y="150" width="220" height="18" rx="9" fill="#6B91CB"/>
  <rect x="490" y="186" width="300" height="14" rx="7" fill="#3E5E87"/>
  <rect x="490" y="232" width="510" height="220" rx="20" fill="#0A1830" stroke="#375573"/>
  <rect x="520" y="270" width="140" height="140" rx="18" fill="#1F4A86"/>
  <rect x="688" y="270" width="140" height="18" rx="9" fill="#7BA2DA"/>
  <rect x="688" y="304" width="220" height="14" rx="7" fill="#4D6F98"/>
  <rect x="688" y="332" width="180" height="14" rx="7" fill="#4D6F98"/>
  <rect x="92" y="438" width="240" height="120" rx="20" fill="#0F2743" stroke="#2B4A6B"/>
  <rect x="122" y="472" width="150" height="16" rx="8" fill="#69A3EA"/>
  <rect x="122" y="504" width="180" height="12" rx="6" fill="#4D6F98"/>
  <rect x="92" y="586" width="260" height="30" rx="15" fill="#244A77"/>
  <circle cx="1005" cy="620" r="58" fill="#3A6FA9" fill-opacity="0.4"/>
  <circle cx="1005" cy="620" r="32" fill="#6DA5F2" fill-opacity="0.7"/>
  <text x="92" y="682" fill="#EAF3FF" font-family="Segoe UI, Arial, sans-serif" font-size="48" font-weight="700">DevVault</text>
</svg>
